<svg width="26" height="26" viewBox="0 0 26 26" fill="none" xmlns="http://www.w3.org/2000/svg">
<path d="M20.5835 9.75H9.75016C8.55355 9.75 7.5835 10.72 7.5835 11.9167V18.4167C7.5835 19.6133 8.55355 20.5833 9.75016 20.5833H20.5835C21.7801 20.5833 22.7502 19.6133 22.7502 18.4167V11.9167C22.7502 10.72 21.7801 9.75 20.5835 9.75Z" stroke="#008EFF" stroke-width="2" stroke-linecap="round" stroke-linejoin="round"/>
<path d="M15.1667 17.3333C16.3633 17.3333 17.3333 16.3633 17.3333 15.1667C17.3333 13.97 16.3633 13 15.1667 13C13.97 13 13 13.97 13 15.1667C13 16.3633 13.97 17.3333 15.1667 17.3333Z" stroke="#008EFF" stroke-width="2" stroke-linecap="round" stroke-linejoin="round"/>
<path d="M18.4167 9.75002V7.58335C18.4167 7.00872 18.1884 6.45762 17.7821 6.05129C17.3757 5.64496 16.8246 5.41669 16.25 5.41669H5.41667C4.84203 5.41669 4.29093 5.64496 3.8846 6.05129C3.47827 6.45762 3.25 7.00872 3.25 7.58335V14.0834C3.25 14.658 3.47827 15.2091 3.8846 15.6154C4.29093 16.0217 4.84203 16.25 5.41667 16.25H7.58333" stroke="#008EFF" stroke-width="2" stroke-linecap="round" stroke-linejoin="round"/>
</svg>
