<svg width="142" height="142" viewBox="0 0 142 142" fill="none" xmlns="http://www.w3.org/2000/svg">
<rect width="142" height="142" rx="40" fill="#29D687"/>
<path fill-rule="evenodd" clip-rule="evenodd" d="M80 43C80 32.5066 88.5066 24 99 24C109.493 24 118 32.5066 118 43V45.311C118 54.0251 112.695 61.8614 104.604 65.0977L94 69.3392V111H80V79L88.8829 71.3861L62 82.1392V99C62 109.493 53.4934 118 43 118C32.5066 118 24 109.493 24 99V96.689C24 87.9749 29.3054 80.1386 37.3962 76.9023L48 72.6608V31H62V63L53.1171 70.6139L80 59.8608V43ZM94 54.2608L99.4043 52.0991C102.18 50.9888 104 48.3005 104 45.311V43C104 40.2386 101.761 38 99 38C96.2385 38 94 40.2386 94 43V54.2608ZM48 87.7392L42.5957 89.9009C39.8201 91.0112 38 93.6995 38 96.689V99C38 101.761 40.2385 104 43 104C45.7615 104 48 101.761 48 99V87.7392Z" fill="white"/>
</svg>
